# Tiled2Unity generated file. Do not modify by hand.
# Wavefront file for 'House1_mesh_0003.obj'

# Vertices (Count = 208)
v -8 -10 0
v -9 -10 0
v -9 -9 0
v -8 -9 0
v -9 -10 0
v -10 -10 0
v -10 -9 0
v -9 -9 0
v -10 -10 0
v -11 -10 0
v -11 -9 0
v -10 -9 0
v -11 -10 0
v -12 -10 0
v -12 -9 0
v -11 -9 0
v -13 -10 0
v -14 -10 0
v -14 -9 0
v -13 -9 0
v -23 -10 0
v -24 -10 0
v -24 -9 0
v -23 -9 0
v -25 -10 0
v -26 -10 0
v -26 -9 0
v -25 -9 0
v -26 -10 0
v -27 -10 0
v -27 -9 0
v -26 -9 0
v -8 -11 0
v -9 -11 0
v -9 -10 0
v -8 -10 0
v -10 -11 0
v -11 -11 0
v -11 -10 0
v -10 -10 0
v -13 -11 0
v -14 -11 0
v -14 -10 0
v -13 -10 0
v -16 -11 0
v -17 -11 0
v -17 -10 0
v -16 -10 0
v -18 -11 0
v -19 -11 0
v -19 -10 0
v -18 -10 0
v -20 -11 0
v -21 -11 0
v -21 -10 0
v -20 -10 0
v -24 -11 0
v -25 -11 0
v -25 -10 0
v -24 -10 0
v -25 -11 0
v -26 -11 0
v -26 -10 0
v -25 -10 0
v -26 -11 0
v -27 -11 0
v -27 -10 0
v -26 -10 0
v -8 -12 0
v -9 -12 0
v -9 -11 0
v -8 -11 0
v -16 -12 0
v -17 -12 0
v -17 -11 0
v -16 -11 0
v -18 -12 0
v -19 -12 0
v -19 -11 0
v -18 -11 0
v -20 -12 0
v -21 -12 0
v -21 -11 0
v -20 -11 0
v -22 -12 0
v -23 -12 0
v -23 -11 0
v -22 -11 0
v -27 -12 0
v -28 -12 0
v -28 -11 0
v -27 -11 0
v -18 -13 0
v -19 -13 0
v -19 -12 0
v -18 -12 0
v -24 -13 0
v -25 -13 0
v -25 -12 0
v -24 -12 0
v -25 -13 0
v -26 -13 0
v -26 -12 0
v -25 -12 0
v -8 -14 0
v -9 -14 0
v -9 -13 0
v -8 -13 0
v -25 -14 0
v -26 -14 0
v -26 -13 0
v -25 -13 0
v -26 -14 0
v -27 -14 0
v -27 -13 0
v -26 -13 0
v -17 -15 0
v -18 -15 0
v -18 -14 0
v -17 -14 0
v -18 -15 0
v -19 -15 0
v -19 -14 0
v -18 -14 0
v -19 -15 0
v -20 -15 0
v -20 -14 0
v -19 -14 0
v -8 -16 0
v -9 -16 0
v -9 -15 0
v -8 -15 0
v -12 -16 0
v -13 -16 0
v -13 -15 0
v -12 -15 0
v -17 -16 0
v -18 -16 0
v -18 -15 0
v -17 -15 0
v -18 -16 0
v -19 -16 0
v -19 -15 0
v -18 -15 0
v -19 -16 0
v -20 -16 0
v -20 -15 0
v -19 -15 0
v -21 -16 0
v -22 -16 0
v -22 -15 0
v -21 -15 0
v -24 -16 0
v -25 -16 0
v -25 -15 0
v -24 -15 0
v -27 -16 0
v -28 -16 0
v -28 -15 0
v -27 -15 0
v -8 -17 0
v -9 -17 0
v -9 -16 0
v -8 -16 0
v -12 -17 0
v -13 -17 0
v -13 -16 0
v -12 -16 0
v -17 -17 0
v -18 -17 0
v -18 -16 0
v -17 -16 0
v -18 -17 0
v -19 -17 0
v -19 -16 0
v -18 -16 0
v -19 -17 0
v -20 -17 0
v -20 -16 0
v -19 -16 0
v -24 -17 0
v -25 -17 0
v -25 -16 0
v -24 -16 0
v -27 -17 0
v -28 -17 0
v -28 -16 0
v -27 -16 0
v -15 -21 0
v -16 -21 0
v -16 -20 0
v -15 -20 0
v -21 -21 0
v -22 -21 0
v -22 -20 0
v -21 -20 0
v -15 -22 0
v -16 -22 0
v -16 -21 0
v -15 -21 0
v -18 -22 0
v -19 -22 0
v -19 -21 0
v -18 -21 0
v -21 -22 0
v -22 -22 0
v -22 -21 0
v -21 -21 0

# Texture cooridinates (Count = 120)
vt 0.4566116 0.8079848
vt 0.4731405 0.8079848
vt 0.4731405 0.838403
vt 0.4566116 0.838403
vt 0.7376033 0.904943
vt 0.7541322 0.904943
vt 0.7541322 0.9353612
vt 0.7376033 0.9353612
vt 0.5268595 0.8726236
vt 0.5433884 0.8726236
vt 0.5433884 0.9030418
vt 0.5268595 0.9030418
vt 0.4566116 0.7110266
vt 0.4731405 0.7110266
vt 0.4731405 0.7414448
vt 0.4566116 0.7414448
vt 0.5444215 0.9372624
vt 0.5609504 0.9372624
vt 0.5609504 0.9676806
vt 0.5444215 0.9676806
vt 0.5268595 0.9372624
vt 0.5433884 0.9372624
vt 0.5433884 0.9676806
vt 0.5268595 0.9676806
vt 0.4566116 0.7756654
vt 0.4731405 0.7756654
vt 0.4731405 0.8060837
vt 0.4566116 0.8060837
vt 0.5268595 0.8403042
vt 0.5433884 0.8403042
vt 0.5433884 0.8707224
vt 0.5268595 0.8707224
vt 0.6497934 0.6787072
vt 0.6663223 0.6787072
vt 0.6663223 0.7091255
vt 0.6497934 0.7091255
vt 0.7902893 0.904943
vt 0.8068182 0.904943
vt 0.8068182 0.9353612
vt 0.7902893 0.9353612
vt 0.4917355 0.9695817
vt 0.5082645 0.9695817
vt 0.5082645 1
vt 0.4917355 1
vt 0.5092975 0.9695817
vt 0.5258265 0.9695817
vt 0.5258265 1
vt 0.5092975 1
vt 0.2634298 0.904943
vt 0.2799587 0.904943
vt 0.2799587 0.9353612
vt 0.2634298 0.9353612
vt 0.7902893 0.8726236
vt 0.8068182 0.8726236
vt 0.8068182 0.9030418
vt 0.7902893 0.9030418
vt 0.4214876 0.904943
vt 0.4380165 0.904943
vt 0.4380165 0.9353612
vt 0.4214876 0.9353612
vt 0.4741735 0.904943
vt 0.4907025 0.904943
vt 0.4907025 0.9353612
vt 0.4741735 0.9353612
vt 0.8780992 0.6140684
vt 0.8946281 0.6140684
vt 0.8946281 0.6444867
vt 0.8780992 0.6444867
vt 0.4039256 0.8726236
vt 0.4204545 0.8726236
vt 0.4204545 0.9030418
vt 0.4039256 0.9030418
vt 0.3161157 0.7756654
vt 0.3326446 0.7756654
vt 0.3326446 0.8060837
vt 0.3161157 0.8060837
vt 0.4390496 0.9695817
vt 0.4555785 0.9695817
vt 0.4555785 1
vt 0.4390496 1
vt 0.4039256 0.9695817
vt 0.4204545 0.9695817
vt 0.4204545 1
vt 0.4039256 1
vt 0.3336777 0.8726236
vt 0.3502066 0.8726236
vt 0.3502066 0.9030418
vt 0.3336777 0.9030418
vt 0.7727273 0.904943
vt 0.7892562 0.904943
vt 0.7892562 0.9353612
vt 0.7727273 0.9353612
vt 0.4566116 0.8726236
vt 0.4731405 0.8726236
vt 0.4731405 0.9030418
vt 0.4566116 0.9030418
vt 0.4741735 0.8726236
vt 0.4907025 0.8726236
vt 0.4907025 0.9030418
vt 0.4741735 0.9030418
vt 0.4741735 0.8079848
vt 0.4907025 0.8079848
vt 0.4907025 0.838403
vt 0.4741735 0.838403
vt 0.4039256 0.904943
vt 0.4204545 0.904943
vt 0.4204545 0.9353612
vt 0.4039256 0.9353612
vt 0.7727273 0.8726236
vt 0.7892562 0.8726236
vt 0.7892562 0.9030418
vt 0.7727273 0.9030418
vt 0.3512397 0.8726236
vt 0.3677686 0.8726236
vt 0.3677686 0.9030418
vt 0.3512397 0.9030418
vt 0.5619835 0.9695817
vt 0.5785124 0.9695817
vt 0.5785124 1
vt 0.5619835 1

# Normal
vn 0 0 -1

# Mesh description
g House1_mesh_0003

# Faces
f 1/1/1 2/2/1 3/3/1 4/4/1
f 5/5/1 6/6/1 7/7/1 8/8/1
f 9/9/1 10/10/1 11/11/1 12/12/1
f 13/5/1 14/6/1 15/7/1 16/8/1
f 17/5/1 18/6/1 19/7/1 20/8/1
f 21/13/1 22/14/1 23/15/1 24/16/1
f 25/17/1 26/18/1 27/19/1 28/20/1
f 29/21/1 30/22/1 31/23/1 32/24/1
f 33/25/1 34/26/1 35/27/1 36/28/1
f 37/29/1 38/30/1 39/31/1 40/32/1
f 41/33/1 42/34/1 43/35/1 44/36/1
f 45/37/1 46/38/1 47/39/1 48/40/1
f 49/37/1 50/38/1 51/39/1 52/40/1
f 53/37/1 54/38/1 55/39/1 56/40/1
f 57/41/1 58/42/1 59/43/1 60/44/1
f 61/45/1 62/46/1 63/47/1 64/48/1
f 65/45/1 66/46/1 67/47/1 68/48/1
f 69/49/1 70/50/1 71/51/1 72/52/1
f 73/53/1 74/54/1 75/55/1 76/56/1
f 77/53/1 78/54/1 79/55/1 80/56/1
f 81/53/1 82/54/1 83/55/1 84/56/1
f 85/57/1 86/58/1 87/59/1 88/60/1
f 89/61/1 90/62/1 91/63/1 92/64/1
f 93/65/1 94/66/1 95/67/1 96/68/1
f 97/69/1 98/70/1 99/71/1 100/72/1
f 101/73/1 102/74/1 103/75/1 104/76/1
f 105/49/1 106/50/1 107/51/1 108/52/1
f 109/77/1 110/78/1 111/79/1 112/80/1
f 113/81/1 114/82/1 115/83/1 116/84/1
f 117/85/1 118/86/1 119/87/1 120/88/1
f 121/85/1 122/86/1 123/87/1 124/88/1
f 125/85/1 126/86/1 127/87/1 128/88/1
f 129/89/1 130/90/1 131/91/1 132/92/1
f 133/89/1 134/90/1 135/91/1 136/92/1
f 137/93/1 138/94/1 139/95/1 140/96/1
f 141/97/1 142/98/1 143/99/1 144/100/1
f 145/101/1 146/102/1 147/103/1 148/104/1
f 149/105/1 150/106/1 151/107/1 152/108/1
f 153/89/1 154/90/1 155/91/1 156/92/1
f 157/89/1 158/90/1 159/91/1 160/92/1
f 161/109/1 162/110/1 163/111/1 164/112/1
f 165/109/1 166/110/1 167/111/1 168/112/1
f 169/113/1 170/114/1 171/115/1 172/116/1
f 173/113/1 174/114/1 175/115/1 176/116/1
f 177/113/1 178/114/1 179/115/1 180/116/1
f 181/109/1 182/110/1 183/111/1 184/112/1
f 185/109/1 186/110/1 187/111/1 188/112/1
f 189/89/1 190/90/1 191/91/1 192/92/1
f 193/89/1 194/90/1 195/91/1 196/92/1
f 197/109/1 198/110/1 199/111/1 200/112/1
f 201/117/1 202/118/1 203/119/1 204/120/1
f 205/109/1 206/110/1 207/111/1 208/112/1

