# Tiled2Unity generated file. Do not modify by hand.
# Wavefront file for 'map_mesh_0004.obj'

# Vertices (Count = 328)
v -48 -43 0
v -49 -43 0
v -49 -42 0
v -48 -42 0
v -53 -42 0
v -54 -42 0
v -54 -41 0
v -53 -41 0
v -48 -42 0
v -49 -42 0
v -49 -41 0
v -48 -41 0
v -52 -41 0
v -53 -41 0
v -53 -40 0
v -52 -40 0
v -46 -41 0
v -47 -41 0
v -47 -40 0
v -46 -40 0
v -52 -40 0
v -53 -40 0
v -53 -39 0
v -52 -39 0
v -18 -40 0
v -19 -40 0
v -19 -39 0
v -18 -39 0
v -50 -39 0
v -51 -39 0
v -51 -38 0
v -50 -38 0
v -49 -39 0
v -50 -39 0
v -50 -38 0
v -49 -38 0
v -47 -39 0
v -48 -39 0
v -48 -38 0
v -47 -38 0
v -46 -39 0
v -47 -39 0
v -47 -38 0
v -46 -38 0
v -30 -39 0
v -31 -39 0
v -31 -38 0
v -30 -38 0
v -18 -39 0
v -19 -39 0
v -19 -38 0
v -18 -38 0
v -53 -38 0
v -54 -38 0
v -54 -37 0
v -53 -37 0
v -27 -38 0
v -28 -38 0
v -28 -37 0
v -27 -37 0
v -50 -37 0
v -51 -37 0
v -51 -36 0
v -50 -36 0
v -47 -37 0
v -48 -37 0
v -48 -36 0
v -47 -36 0
v -46 -37 0
v -47 -37 0
v -47 -36 0
v -46 -36 0
v -39 -37 0
v -40 -37 0
v -40 -36 0
v -39 -36 0
v -34 -37 0
v -35 -37 0
v -35 -36 0
v -34 -36 0
v -47 -36 0
v -48 -36 0
v -48 -35 0
v -47 -35 0
v -46 -36 0
v -47 -36 0
v -47 -35 0
v -46 -35 0
v -34 -36 0
v -35 -36 0
v -35 -35 0
v -34 -35 0
v -28 -36 0
v -29 -36 0
v -29 -35 0
v -28 -35 0
v -27 -36 0
v -28 -36 0
v -28 -35 0
v -27 -35 0
v -26 -36 0
v -27 -36 0
v -27 -35 0
v -26 -35 0
v -43 -35 0
v -44 -35 0
v -44 -34 0
v -43 -34 0
v -35 -35 0
v -36 -35 0
v -36 -34 0
v -35 -34 0
v -34 -35 0
v -35 -35 0
v -35 -34 0
v -34 -34 0
v -33 -35 0
v -34 -35 0
v -34 -34 0
v -33 -34 0
v -28 -35 0
v -29 -35 0
v -29 -34 0
v -28 -34 0
v -27 -35 0
v -28 -35 0
v -28 -34 0
v -27 -34 0
v -26 -35 0
v -27 -35 0
v -27 -34 0
v -26 -34 0
v -43 -34 0
v -44 -34 0
v -44 -33 0
v -43 -33 0
v -35 -34 0
v -36 -34 0
v -36 -33 0
v -35 -33 0
v -34 -34 0
v -35 -34 0
v -35 -33 0
v -34 -33 0
v -33 -34 0
v -34 -34 0
v -34 -33 0
v -33 -33 0
v -28 -34 0
v -29 -34 0
v -29 -33 0
v -28 -33 0
v -27 -34 0
v -28 -34 0
v -28 -33 0
v -27 -33 0
v -26 -34 0
v -27 -34 0
v -27 -33 0
v -26 -33 0
v -35 -33 0
v -36 -33 0
v -36 -32 0
v -35 -32 0
v -34 -33 0
v -35 -33 0
v -35 -32 0
v -34 -32 0
v -33 -33 0
v -34 -33 0
v -34 -32 0
v -33 -32 0
v -29 -32 0
v -30 -32 0
v -30 -31 0
v -29 -31 0
v -27 -31 0
v -28 -31 0
v -28 -30 0
v -27 -30 0
v -26 -31 0
v -27 -31 0
v -27 -30 0
v -26 -30 0
v -53 -30 0
v -54 -30 0
v -54 -29 0
v -53 -29 0
v -52 -30 0
v -53 -30 0
v -53 -29 0
v -52 -29 0
v -48 -30 0
v -49 -30 0
v -49 -29 0
v -48 -29 0
v -47 -30 0
v -48 -30 0
v -48 -29 0
v -47 -29 0
v -27 -30 0
v -28 -30 0
v -28 -29 0
v -27 -29 0
v -26 -30 0
v -27 -30 0
v -27 -29 0
v -26 -29 0
v -53 -29 0
v -54 -29 0
v -54 -28 0
v -53 -28 0
v -52 -29 0
v -53 -29 0
v -53 -28 0
v -52 -28 0
v -51 -29 0
v -52 -29 0
v -52 -28 0
v -51 -28 0
v -48 -29 0
v -49 -29 0
v -49 -28 0
v -48 -28 0
v -47 -29 0
v -48 -29 0
v -48 -28 0
v -47 -28 0
v -27 -29 0
v -28 -29 0
v -28 -28 0
v -27 -28 0
v -26 -29 0
v -27 -29 0
v -27 -28 0
v -26 -28 0
v -53 -28 0
v -54 -28 0
v -54 -27 0
v -53 -27 0
v -52 -28 0
v -53 -28 0
v -53 -27 0
v -52 -27 0
v -51 -28 0
v -52 -28 0
v -52 -27 0
v -51 -27 0
v -48 -28 0
v -49 -28 0
v -49 -27 0
v -48 -27 0
v -47 -28 0
v -48 -28 0
v -48 -27 0
v -47 -27 0
v -27 -28 0
v -28 -28 0
v -28 -27 0
v -27 -27 0
v -26 -28 0
v -27 -28 0
v -27 -27 0
v -26 -27 0
v -53 -27 0
v -54 -27 0
v -54 -26 0
v -53 -26 0
v -52 -27 0
v -53 -27 0
v -53 -26 0
v -52 -26 0
v -30 -24 0
v -31 -24 0
v -31 -23 0
v -30 -23 0
v -30 -23 0
v -31 -23 0
v -31 -22 0
v -30 -22 0
v -53 -21 0
v -54 -21 0
v -54 -20 0
v -53 -20 0
v -52 -21 0
v -53 -21 0
v -53 -20 0
v -52 -20 0
v -53 -20 0
v -54 -20 0
v -54 -19 0
v -53 -19 0
v -52 -20 0
v -53 -20 0
v -53 -19 0
v -52 -19 0
v -83 -18 0
v -84 -18 0
v -84 -17 0
v -83 -17 0
v -82 -18 0
v -83 -18 0
v -83 -17 0
v -82 -17 0
v -83 -17 0
v -84 -17 0
v -84 -16 0
v -83 -16 0
v -82 -17 0
v -83 -17 0
v -83 -16 0
v -82 -16 0
v -83 -16 0
v -84 -16 0
v -84 -15 0
v -83 -15 0
v -82 -16 0
v -83 -16 0
v -83 -15 0
v -82 -15 0
v -83 -15 0
v -84 -15 0
v -84 -14 0
v -83 -14 0
v -82 -15 0
v -83 -15 0
v -83 -14 0
v -82 -14 0

# Texture cooridinates (Count = 216)
vt 0.2809917 0.6140684
vt 0.2975207 0.6140684
vt 0.2975207 0.6444867
vt 0.2809917 0.6444867
vt 0.2809917 0.6463878
vt 0.2975207 0.6463878
vt 0.2975207 0.6768061
vt 0.2809917 0.6768061
vt 0.9307851 0.6787072
vt 0.947314 0.6787072
vt 0.947314 0.7091255
vt 0.9307851 0.7091255
vt 0.9132231 0.6787072
vt 0.9297521 0.6787072
vt 0.9297521 0.7091255
vt 0.9132231 0.7091255
vt 0.8956612 0.6787072
vt 0.9121901 0.6787072
vt 0.9121901 0.7091255
vt 0.8956612 0.7091255
vt 0.9307851 0.6140684
vt 0.947314 0.6140684
vt 0.947314 0.6444867
vt 0.9307851 0.6444867
vt 0.5795454 0.9695817
vt 0.5960744 0.9695817
vt 0.5960744 1
vt 0.5795454 1
vt 0.7727273 0.8079848
vt 0.7892562 0.8079848
vt 0.7892562 0.838403
vt 0.7727273 0.838403
vt 0.9132231 0.6140684
vt 0.9297521 0.6140684
vt 0.9297521 0.6444867
vt 0.9132231 0.6444867
vt 0.8956612 0.6140684
vt 0.9121901 0.6140684
vt 0.9121901 0.6444867
vt 0.8956612 0.6444867
vt 0.4741735 0.6140684
vt 0.4907025 0.6140684
vt 0.4907025 0.6444867
vt 0.4741735 0.6444867
vt 0.5795454 0.9372624
vt 0.5960744 0.9372624
vt 0.5960744 0.9676806
vt 0.5795454 0.9676806
vt 0.8956612 0.6463878
vt 0.9121901 0.6463878
vt 0.9121901 0.6768061
vt 0.8956612 0.6768061
vt 0.8078513 0.8079848
vt 0.8243802 0.8079848
vt 0.8243802 0.838403
vt 0.8078513 0.838403
vt 0.3688017 0.2262357
vt 0.3853306 0.2262357
vt 0.3853306 0.256654
vt 0.3688017 0.256654
vt 0.3863636 0.2585551
vt 0.4028926 0.2585551
vt 0.4028926 0.2889734
vt 0.3863636 0.2889734
vt 0.3512397 0.2262357
vt 0.3677686 0.2262357
vt 0.3677686 0.256654
vt 0.3512397 0.256654
vt 0.8780992 0.6140684
vt 0.8946281 0.6140684
vt 0.8946281 0.6444867
vt 0.8780992 0.6444867
vt 0.3688017 0.2585551
vt 0.3853306 0.2585551
vt 0.3853306 0.2889734
vt 0.3688017 0.2889734
vt 0.4390496 0.2585551
vt 0.4555785 0.2585551
vt 0.4555785 0.2889734
vt 0.4390496 0.2889734
vt 0.3512397 0.2585551
vt 0.3677686 0.2585551
vt 0.3677686 0.2889734
vt 0.3512397 0.2889734
vt 0.8780992 0.6463878
vt 0.8946281 0.6463878
vt 0.8946281 0.6768061
vt 0.8780992 0.6768061
vt 0.3688017 0.2908745
vt 0.3853306 0.2908745
vt 0.3853306 0.3212928
vt 0.3688017 0.3212928
vt 0.4390496 0.2908745
vt 0.4555785 0.2908745
vt 0.4555785 0.3212928
vt 0.4390496 0.3212928
vt 0.3512397 0.2908745
vt 0.3677686 0.2908745
vt 0.3677686 0.3212928
vt 0.3512397 0.3212928
vt 0.3863636 0.6463878
vt 0.4028926 0.6463878
vt 0.4028926 0.6768061
vt 0.3863636 0.6768061
vt 0.5092975 0.7110266
vt 0.5258265 0.7110266
vt 0.5258265 0.7414448
vt 0.5092975 0.7414448
vt 0.4917355 0.7110266
vt 0.5082645 0.7110266
vt 0.5082645 0.7414448
vt 0.4917355 0.7414448
vt 0.5444215 0.7756654
vt 0.5609504 0.7756654
vt 0.5609504 0.8060837
vt 0.5444215 0.8060837
vt 0.5268595 0.7756654
vt 0.5433884 0.7756654
vt 0.5433884 0.8060837
vt 0.5268595 0.8060837
vt 0.6146694 0.2262357
vt 0.6311983 0.2262357
vt 0.6311983 0.256654
vt 0.6146694 0.256654
vt 0.5971074 0.2262357
vt 0.6136364 0.2262357
vt 0.6136364 0.256654
vt 0.5971074 0.256654
vt 0.4214876 0.2262357
vt 0.4380165 0.2262357
vt 0.4380165 0.256654
vt 0.4214876 0.256654
vt 0.6673554 0.1939163
vt 0.6838843 0.1939163
vt 0.6838843 0.2243346
vt 0.6673554 0.2243346
vt 0.5971074 0.2585551
vt 0.6136364 0.2585551
vt 0.6136364 0.2889734
vt 0.5971074 0.2889734
vt 0.4039256 0.1939163
vt 0.4204545 0.1939163
vt 0.4204545 0.2243346
vt 0.4039256 0.2243346
vt 0.6146694 0.2585551
vt 0.6311983 0.2585551
vt 0.6311983 0.2889734
vt 0.6146694 0.2889734
vt 0.4214876 0.2908745
vt 0.4380165 0.2908745
vt 0.4380165 0.3212928
vt 0.4214876 0.3212928
vt 0.6146694 0.2908745
vt 0.6311983 0.2908745
vt 0.6311983 0.3212928
vt 0.6146694 0.3212928
vt 0.5971074 0.2908745
vt 0.6136364 0.2908745
vt 0.6136364 0.3212928
vt 0.5971074 0.3212928
vt 0.4741735 0.6463878
vt 0.4907025 0.6463878
vt 0.4907025 0.6768061
vt 0.4741735 0.6768061
vt 0.4741735 0.6787072
vt 0.4907025 0.6787072
vt 0.4907025 0.7091255
vt 0.4741735 0.7091255
vt 0.2107438 0.8403042
vt 0.2272727 0.8403042
vt 0.2272727 0.8707224
vt 0.2107438 0.8707224
vt 0.1931818 0.8079848
vt 0.2097107 0.8079848
vt 0.2097107 0.838403
vt 0.1931818 0.838403
vt 0.1756198 0.9695817
vt 0.1921488 0.9695817
vt 0.1921488 1
vt 0.1756198 1
vt 0.1756198 0.9372624
vt 0.1921488 0.9372624
vt 0.1921488 0.9676806
vt 0.1756198 0.9676806
vt 0.6849173 0.7756654
vt 0.7014463 0.7756654
vt 0.7014463 0.8060837
vt 0.6849173 0.8060837
vt 0.6673554 0.7756654
vt 0.6838843 0.7756654
vt 0.6838843 0.8060837
vt 0.6673554 0.8060837
vt 0.4917355 0.2262357
vt 0.5082645 0.2262357
vt 0.5082645 0.256654
vt 0.4917355 0.256654
vt 0.4741735 0.2262357
vt 0.4907025 0.2262357
vt 0.4907025 0.256654
vt 0.4741735 0.256654
vt 0.4917355 0.2585551
vt 0.5082645 0.2585551
vt 0.5082645 0.2889734
vt 0.4917355 0.2889734
vt 0.4741735 0.2585551
vt 0.4907025 0.2585551
vt 0.4907025 0.2889734
vt 0.4741735 0.2889734
vt 0.4917355 0.2908745
vt 0.5082645 0.2908745
vt 0.5082645 0.3212928
vt 0.4917355 0.3212928
vt 0.4741735 0.2908745
vt 0.4907025 0.2908745
vt 0.4907025 0.3212928
vt 0.4741735 0.3212928

# Normal
vn 0 0 -1

# Mesh description
g map_mesh_0004

# Faces
f 1/1/1 2/2/1 3/3/1 4/4/1
f 5/5/1 6/6/1 7/7/1 8/8/1
f 9/5/1 10/6/1 11/7/1 12/8/1
f 13/1/1 14/2/1 15/3/1 16/4/1
f 17/9/1 18/10/1 19/11/1 20/12/1
f 21/5/1 22/6/1 23/7/1 24/8/1
f 25/1/1 26/2/1 27/3/1 28/4/1
f 29/13/1 30/14/1 31/15/1 32/16/1
f 33/17/1 34/18/1 35/19/1 36/20/1
f 37/21/1 38/22/1 39/23/1 40/24/1
f 41/9/1 42/10/1 43/11/1 44/12/1
f 45/25/1 46/26/1 47/27/1 48/28/1
f 49/5/1 50/6/1 51/7/1 52/8/1
f 53/5/1 54/6/1 55/7/1 56/8/1
f 57/29/1 58/30/1 59/31/1 60/32/1
f 61/33/1 62/34/1 63/35/1 64/36/1
f 65/33/1 66/34/1 67/35/1 68/36/1
f 69/37/1 70/38/1 71/39/1 72/40/1
f 73/41/1 74/42/1 75/43/1 76/44/1
f 77/45/1 78/46/1 79/47/1 80/48/1
f 81/13/1 82/14/1 83/15/1 84/16/1
f 85/49/1 86/50/1 87/51/1 88/52/1
f 89/53/1 90/54/1 91/55/1 92/56/1
f 93/57/1 94/58/1 95/59/1 96/60/1
f 97/61/1 98/62/1 99/63/1 100/64/1
f 101/65/1 102/66/1 103/67/1 104/68/1
f 105/69/1 106/70/1 107/71/1 108/72/1
f 109/57/1 110/58/1 111/59/1 112/60/1
f 113/61/1 114/62/1 115/63/1 116/64/1
f 117/65/1 118/66/1 119/67/1 120/68/1
f 121/73/1 122/74/1 123/75/1 124/76/1
f 125/77/1 126/78/1 127/79/1 128/80/1
f 129/81/1 130/82/1 131/83/1 132/84/1
f 133/85/1 134/86/1 135/87/1 136/88/1
f 137/73/1 138/74/1 139/75/1 140/76/1
f 141/77/1 142/78/1 143/79/1 144/80/1
f 145/81/1 146/82/1 147/83/1 148/84/1
f 149/89/1 150/90/1 151/91/1 152/92/1
f 153/93/1 154/94/1 155/95/1 156/96/1
f 157/97/1 158/98/1 159/99/1 160/100/1
f 161/89/1 162/90/1 163/91/1 164/92/1
f 165/93/1 166/94/1 167/95/1 168/96/1
f 169/97/1 170/98/1 171/99/1 172/100/1
f 173/101/1 174/102/1 175/103/1 176/104/1
f 177/105/1 178/106/1 179/107/1 180/108/1
f 181/109/1 182/110/1 183/111/1 184/112/1
f 185/113/1 186/114/1 187/115/1 188/116/1
f 189/117/1 190/118/1 191/119/1 192/120/1
f 193/121/1 194/122/1 195/123/1 196/124/1
f 197/125/1 198/126/1 199/127/1 200/128/1
f 201/57/1 202/58/1 203/59/1 204/60/1
f 205/65/1 206/66/1 207/67/1 208/68/1
f 209/121/1 210/122/1 211/123/1 212/124/1
f 213/125/1 214/126/1 215/127/1 216/128/1
f 217/129/1 218/130/1 219/131/1 220/132/1
f 221/133/1 222/134/1 223/135/1 224/136/1
f 225/137/1 226/138/1 227/139/1 228/140/1
f 229/73/1 230/74/1 231/75/1 232/76/1
f 233/141/1 234/142/1 235/143/1 236/144/1
f 237/145/1 238/146/1 239/147/1 240/148/1
f 241/137/1 242/138/1 243/139/1 244/140/1
f 245/149/1 246/150/1 247/151/1 248/152/1
f 249/153/1 250/154/1 251/155/1 252/156/1
f 253/157/1 254/158/1 255/159/1 256/160/1
f 257/89/1 258/90/1 259/91/1 260/92/1
f 261/97/1 262/98/1 263/99/1 264/100/1
f 265/153/1 266/154/1 267/155/1 268/156/1
f 269/157/1 270/158/1 271/159/1 272/160/1
f 273/161/1 274/162/1 275/163/1 276/164/1
f 277/165/1 278/166/1 279/167/1 280/168/1
f 281/169/1 282/170/1 283/171/1 284/172/1
f 285/173/1 286/174/1 287/175/1 288/176/1
f 289/177/1 290/178/1 291/179/1 292/180/1
f 293/181/1 294/182/1 295/183/1 296/184/1
f 297/185/1 298/186/1 299/187/1 300/188/1
f 301/189/1 302/190/1 303/191/1 304/192/1
f 305/193/1 306/194/1 307/195/1 308/196/1
f 309/197/1 310/198/1 311/199/1 312/200/1
f 313/201/1 314/202/1 315/203/1 316/204/1
f 317/205/1 318/206/1 319/207/1 320/208/1
f 321/209/1 322/210/1 323/211/1 324/212/1
f 325/213/1 326/214/1 327/215/1 328/216/1

