# Tiled2Unity generated file. Do not modify by hand.
# Wavefront file for 'Market_mesh_0003.obj'

# Vertices (Count = 736)
v -31 -8 0
v -32 -8 0
v -32 -7 0
v -31 -7 0
v -27 -8 0
v -28 -8 0
v -28 -7 0
v -27 -7 0
v -23 -8 0
v -24 -8 0
v -24 -7 0
v -23 -7 0
v -19 -8 0
v -20 -8 0
v -20 -7 0
v -19 -7 0
v -39 -9 0
v -40 -9 0
v -40 -8 0
v -39 -8 0
v -38 -9 0
v -39 -9 0
v -39 -8 0
v -38 -8 0
v -37 -9 0
v -38 -9 0
v -38 -8 0
v -37 -8 0
v -33 -9 0
v -34 -9 0
v -34 -8 0
v -33 -8 0
v -32 -9 0
v -33 -9 0
v -33 -8 0
v -32 -8 0
v -31 -9 0
v -32 -9 0
v -32 -8 0
v -31 -8 0
v -30 -9 0
v -31 -9 0
v -31 -8 0
v -30 -8 0
v -29 -9 0
v -30 -9 0
v -30 -8 0
v -29 -8 0
v -28 -9 0
v -29 -9 0
v -29 -8 0
v -28 -8 0
v -27 -9 0
v -28 -9 0
v -28 -8 0
v -27 -8 0
v -26 -9 0
v -27 -9 0
v -27 -8 0
v -26 -8 0
v -25 -9 0
v -26 -9 0
v -26 -8 0
v -25 -8 0
v -24 -9 0
v -25 -9 0
v -25 -8 0
v -24 -8 0
v -23 -9 0
v -24 -9 0
v -24 -8 0
v -23 -8 0
v -22 -9 0
v -23 -9 0
v -23 -8 0
v -22 -8 0
v -21 -9 0
v -22 -9 0
v -22 -8 0
v -21 -8 0
v -20 -9 0
v -21 -9 0
v -21 -8 0
v -20 -8 0
v -19 -9 0
v -20 -9 0
v -20 -8 0
v -19 -8 0
v -18 -9 0
v -19 -9 0
v -19 -8 0
v -18 -8 0
v -17 -9 0
v -18 -9 0
v -18 -8 0
v -17 -8 0
v -16 -9 0
v -17 -9 0
v -17 -8 0
v -16 -8 0
v -12 -9 0
v -13 -9 0
v -13 -8 0
v -12 -8 0
v -11 -9 0
v -12 -9 0
v -12 -8 0
v -11 -8 0
v -10 -9 0
v -11 -9 0
v -11 -8 0
v -10 -8 0
v -39 -10 0
v -40 -10 0
v -40 -9 0
v -39 -9 0
v -38 -10 0
v -39 -10 0
v -39 -9 0
v -38 -9 0
v -37 -10 0
v -38 -10 0
v -38 -9 0
v -37 -9 0
v -36 -10 0
v -37 -10 0
v -37 -9 0
v -36 -9 0
v -33 -10 0
v -34 -10 0
v -34 -9 0
v -33 -9 0
v -32 -10 0
v -33 -10 0
v -33 -9 0
v -32 -9 0
v -31 -10 0
v -32 -10 0
v -32 -9 0
v -31 -9 0
v -30 -10 0
v -31 -10 0
v -31 -9 0
v -30 -9 0
v -29 -10 0
v -30 -10 0
v -30 -9 0
v -29 -9 0
v -28 -10 0
v -29 -10 0
v -29 -9 0
v -28 -9 0
v -27 -10 0
v -28 -10 0
v -28 -9 0
v -27 -9 0
v -26 -10 0
v -27 -10 0
v -27 -9 0
v -26 -9 0
v -25 -10 0
v -26 -10 0
v -26 -9 0
v -25 -9 0
v -24 -10 0
v -25 -10 0
v -25 -9 0
v -24 -9 0
v -23 -10 0
v -24 -10 0
v -24 -9 0
v -23 -9 0
v -22 -10 0
v -23 -10 0
v -23 -9 0
v -22 -9 0
v -21 -10 0
v -22 -10 0
v -22 -9 0
v -21 -9 0
v -20 -10 0
v -21 -10 0
v -21 -9 0
v -20 -9 0
v -19 -10 0
v -20 -10 0
v -20 -9 0
v -19 -9 0
v -18 -10 0
v -19 -10 0
v -19 -9 0
v -18 -9 0
v -17 -10 0
v -18 -10 0
v -18 -9 0
v -17 -9 0
v -16 -10 0
v -17 -10 0
v -17 -9 0
v -16 -9 0
v -13 -10 0
v -14 -10 0
v -14 -9 0
v -13 -9 0
v -12 -10 0
v -13 -10 0
v -13 -9 0
v -12 -9 0
v -11 -10 0
v -12 -10 0
v -12 -9 0
v -11 -9 0
v -10 -10 0
v -11 -10 0
v -11 -9 0
v -10 -9 0
v -31 -11 0
v -32 -11 0
v -32 -10 0
v -31 -10 0
v -27 -11 0
v -28 -11 0
v -28 -10 0
v -27 -10 0
v -23 -11 0
v -24 -11 0
v -24 -10 0
v -23 -10 0
v -19 -11 0
v -20 -11 0
v -20 -10 0
v -19 -10 0
v -39 -12 0
v -40 -12 0
v -40 -11 0
v -39 -11 0
v -38 -12 0
v -39 -12 0
v -39 -11 0
v -38 -11 0
v -37 -12 0
v -38 -12 0
v -38 -11 0
v -37 -11 0
v -33 -12 0
v -34 -12 0
v -34 -11 0
v -33 -11 0
v -32 -12 0
v -33 -12 0
v -33 -11 0
v -32 -11 0
v -31 -12 0
v -32 -12 0
v -32 -11 0
v -31 -11 0
v -30 -12 0
v -31 -12 0
v -31 -11 0
v -30 -11 0
v -29 -12 0
v -30 -12 0
v -30 -11 0
v -29 -11 0
v -28 -12 0
v -29 -12 0
v -29 -11 0
v -28 -11 0
v -27 -12 0
v -28 -12 0
v -28 -11 0
v -27 -11 0
v -26 -12 0
v -27 -12 0
v -27 -11 0
v -26 -11 0
v -25 -12 0
v -26 -12 0
v -26 -11 0
v -25 -11 0
v -24 -12 0
v -25 -12 0
v -25 -11 0
v -24 -11 0
v -23 -12 0
v -24 -12 0
v -24 -11 0
v -23 -11 0
v -22 -12 0
v -23 -12 0
v -23 -11 0
v -22 -11 0
v -21 -12 0
v -22 -12 0
v -22 -11 0
v -21 -11 0
v -20 -12 0
v -21 -12 0
v -21 -11 0
v -20 -11 0
v -19 -12 0
v -20 -12 0
v -20 -11 0
v -19 -11 0
v -18 -12 0
v -19 -12 0
v -19 -11 0
v -18 -11 0
v -17 -12 0
v -18 -12 0
v -18 -11 0
v -17 -11 0
v -16 -12 0
v -17 -12 0
v -17 -11 0
v -16 -11 0
v -12 -12 0
v -13 -12 0
v -13 -11 0
v -12 -11 0
v -11 -12 0
v -12 -12 0
v -12 -11 0
v -11 -11 0
v -10 -12 0
v -11 -12 0
v -11 -11 0
v -10 -11 0
v -39 -13 0
v -40 -13 0
v -40 -12 0
v -39 -12 0
v -38 -13 0
v -39 -13 0
v -39 -12 0
v -38 -12 0
v -37 -13 0
v -38 -13 0
v -38 -12 0
v -37 -12 0
v -36 -13 0
v -37 -13 0
v -37 -12 0
v -36 -12 0
v -33 -13 0
v -34 -13 0
v -34 -12 0
v -33 -12 0
v -31 -13 0
v -32 -13 0
v -32 -12 0
v -31 -12 0
v -30 -13 0
v -31 -13 0
v -31 -12 0
v -30 -12 0
v -29 -13 0
v -30 -13 0
v -30 -12 0
v -29 -12 0
v -28 -13 0
v -29 -13 0
v -29 -12 0
v -28 -12 0
v -27 -13 0
v -28 -13 0
v -28 -12 0
v -27 -12 0
v -26 -13 0
v -27 -13 0
v -27 -12 0
v -26 -12 0
v -25 -13 0
v -26 -13 0
v -26 -12 0
v -25 -12 0
v -24 -13 0
v -25 -13 0
v -25 -12 0
v -24 -12 0
v -23 -13 0
v -24 -13 0
v -24 -12 0
v -23 -12 0
v -22 -13 0
v -23 -13 0
v -23 -12 0
v -22 -12 0
v -21 -13 0
v -22 -13 0
v -22 -12 0
v -21 -12 0
v -20 -13 0
v -21 -13 0
v -21 -12 0
v -20 -12 0
v -19 -13 0
v -20 -13 0
v -20 -12 0
v -19 -12 0
v -16 -13 0
v -17 -13 0
v -17 -12 0
v -16 -12 0
v -13 -13 0
v -14 -13 0
v -14 -12 0
v -13 -12 0
v -12 -13 0
v -13 -13 0
v -13 -12 0
v -12 -12 0
v -11 -13 0
v -12 -13 0
v -12 -12 0
v -11 -12 0
v -10 -13 0
v -11 -13 0
v -11 -12 0
v -10 -12 0
v -33 -14 0
v -34 -14 0
v -34 -13 0
v -33 -13 0
v -32 -14 0
v -33 -14 0
v -33 -13 0
v -32 -13 0
v -31 -14 0
v -32 -14 0
v -32 -13 0
v -31 -13 0
v -30 -14 0
v -31 -14 0
v -31 -13 0
v -30 -13 0
v -29 -14 0
v -30 -14 0
v -30 -13 0
v -29 -13 0
v -28 -14 0
v -29 -14 0
v -29 -13 0
v -28 -13 0
v -27 -14 0
v -28 -14 0
v -28 -13 0
v -27 -13 0
v -26 -14 0
v -27 -14 0
v -27 -13 0
v -26 -13 0
v -25 -14 0
v -26 -14 0
v -26 -13 0
v -25 -13 0
v -24 -14 0
v -25 -14 0
v -25 -13 0
v -24 -13 0
v -23 -14 0
v -24 -14 0
v -24 -13 0
v -23 -13 0
v -22 -14 0
v -23 -14 0
v -23 -13 0
v -22 -13 0
v -21 -14 0
v -22 -14 0
v -22 -13 0
v -21 -13 0
v -20 -14 0
v -21 -14 0
v -21 -13 0
v -20 -13 0
v -19 -14 0
v -20 -14 0
v -20 -13 0
v -19 -13 0
v -18 -14 0
v -19 -14 0
v -19 -13 0
v -18 -13 0
v -17 -14 0
v -18 -14 0
v -18 -13 0
v -17 -13 0
v -16 -14 0
v -17 -14 0
v -17 -13 0
v -16 -13 0
v -39 -15 0
v -40 -15 0
v -40 -14 0
v -39 -14 0
v -38 -15 0
v -39 -15 0
v -39 -14 0
v -38 -14 0
v -37 -15 0
v -38 -15 0
v -38 -14 0
v -37 -14 0
v -31 -15 0
v -32 -15 0
v -32 -14 0
v -31 -14 0
v -30 -15 0
v -31 -15 0
v -31 -14 0
v -30 -14 0
v -29 -15 0
v -30 -15 0
v -30 -14 0
v -29 -14 0
v -28 -15 0
v -29 -15 0
v -29 -14 0
v -28 -14 0
v -27 -15 0
v -28 -15 0
v -28 -14 0
v -27 -14 0
v -23 -15 0
v -24 -15 0
v -24 -14 0
v -23 -14 0
v -19 -15 0
v -20 -15 0
v -20 -14 0
v -19 -14 0
v -12 -15 0
v -13 -15 0
v -13 -14 0
v -12 -14 0
v -11 -15 0
v -12 -15 0
v -12 -14 0
v -11 -14 0
v -10 -15 0
v -11 -15 0
v -11 -14 0
v -10 -14 0
v -39 -16 0
v -40 -16 0
v -40 -15 0
v -39 -15 0
v -38 -16 0
v -39 -16 0
v -39 -15 0
v -38 -15 0
v -37 -16 0
v -38 -16 0
v -38 -15 0
v -37 -15 0
v -36 -16 0
v -37 -16 0
v -37 -15 0
v -36 -15 0
v -33 -16 0
v -34 -16 0
v -34 -15 0
v -33 -15 0
v -32 -16 0
v -33 -16 0
v -33 -15 0
v -32 -15 0
v -31 -16 0
v -32 -16 0
v -32 -15 0
v -31 -15 0
v -30 -16 0
v -31 -16 0
v -31 -15 0
v -30 -15 0
v -29 -16 0
v -30 -16 0
v -30 -15 0
v -29 -15 0
v -28 -16 0
v -29 -16 0
v -29 -15 0
v -28 -15 0
v -27 -16 0
v -28 -16 0
v -28 -15 0
v -27 -15 0
v -26 -16 0
v -27 -16 0
v -27 -15 0
v -26 -15 0
v -25 -16 0
v -26 -16 0
v -26 -15 0
v -25 -15 0
v -24 -16 0
v -25 -16 0
v -25 -15 0
v -24 -15 0
v -23 -16 0
v -24 -16 0
v -24 -15 0
v -23 -15 0
v -22 -16 0
v -23 -16 0
v -23 -15 0
v -22 -15 0
v -21 -16 0
v -22 -16 0
v -22 -15 0
v -21 -15 0
v -20 -16 0
v -21 -16 0
v -21 -15 0
v -20 -15 0
v -19 -16 0
v -20 -16 0
v -20 -15 0
v -19 -15 0
v -18 -16 0
v -19 -16 0
v -19 -15 0
v -18 -15 0
v -17 -16 0
v -18 -16 0
v -18 -15 0
v -17 -15 0
v -16 -16 0
v -17 -16 0
v -17 -15 0
v -16 -15 0
v -13 -16 0
v -14 -16 0
v -14 -15 0
v -13 -15 0
v -12 -16 0
v -13 -16 0
v -13 -15 0
v -12 -15 0
v -11 -16 0
v -12 -16 0
v -12 -15 0
v -11 -15 0
v -10 -16 0
v -11 -16 0
v -11 -15 0
v -10 -15 0
v -33 -17 0
v -34 -17 0
v -34 -16 0
v -33 -16 0
v -32 -17 0
v -33 -17 0
v -33 -16 0
v -32 -16 0
v -31 -17 0
v -32 -17 0
v -32 -16 0
v -31 -16 0
v -30 -17 0
v -31 -17 0
v -31 -16 0
v -30 -16 0
v -29 -17 0
v -30 -17 0
v -30 -16 0
v -29 -16 0
v -28 -17 0
v -29 -17 0
v -29 -16 0
v -28 -16 0
v -27 -17 0
v -28 -17 0
v -28 -16 0
v -27 -16 0
v -26 -17 0
v -27 -17 0
v -27 -16 0
v -26 -16 0
v -25 -17 0
v -26 -17 0
v -26 -16 0
v -25 -16 0
v -24 -17 0
v -25 -17 0
v -25 -16 0
v -24 -16 0
v -23 -17 0
v -24 -17 0
v -24 -16 0
v -23 -16 0
v -22 -17 0
v -23 -17 0
v -23 -16 0
v -22 -16 0
v -21 -17 0
v -22 -17 0
v -22 -16 0
v -21 -16 0
v -20 -17 0
v -21 -17 0
v -21 -16 0
v -20 -16 0
v -19 -17 0
v -20 -17 0
v -20 -16 0
v -19 -16 0
v -18 -17 0
v -19 -17 0
v -19 -16 0
v -18 -16 0
v -17 -17 0
v -18 -17 0
v -18 -16 0
v -17 -16 0
v -16 -17 0
v -17 -17 0
v -17 -16 0
v -16 -16 0
v -31 -18 0
v -32 -18 0
v -32 -17 0
v -31 -17 0
v -27 -18 0
v -28 -18 0
v -28 -17 0
v -27 -17 0
v -23 -18 0
v -24 -18 0
v -24 -17 0
v -23 -17 0
v -19 -18 0
v -20 -18 0
v -20 -17 0
v -19 -17 0

# Texture cooridinates (Count = 140)
vt 0.1404959 0.4524715
vt 0.1570248 0.4524715
vt 0.1570248 0.4828897
vt 0.1404959 0.4828897
vt 0.2985537 0.7756654
vt 0.3150826 0.7756654
vt 0.3150826 0.8060837
vt 0.2985537 0.8060837
vt 0.2809917 0.7756654
vt 0.2975207 0.7756654
vt 0.2975207 0.8060837
vt 0.2809917 0.8060837
vt 0.2634298 0.7756654
vt 0.2799587 0.7756654
vt 0.2799587 0.8060837
vt 0.2634298 0.8060837
vt 0.1931818 0.904943
vt 0.2097107 0.904943
vt 0.2097107 0.9353612
vt 0.1931818 0.9353612
vt 0.1931818 0.9372624
vt 0.2097107 0.9372624
vt 0.2097107 0.9676806
vt 0.1931818 0.9676806
vt 0.1931818 0.9695817
vt 0.2097107 0.9695817
vt 0.2097107 1
vt 0.1931818 1
vt 0.1756198 0.7756654
vt 0.1921488 0.7756654
vt 0.1921488 0.8060837
vt 0.1756198 0.8060837
vt 0.1756198 0.8079848
vt 0.1921488 0.8079848
vt 0.1921488 0.838403
vt 0.1756198 0.838403
vt 0.2283058 0.8403042
vt 0.2448347 0.8403042
vt 0.2448347 0.8707224
vt 0.2283058 0.8707224
vt 0.2107438 0.8403042
vt 0.2272727 0.8403042
vt 0.2272727 0.8707224
vt 0.2107438 0.8707224
vt 0.1931818 0.8403042
vt 0.2097107 0.8403042
vt 0.2097107 0.8707224
vt 0.1931818 0.8707224
vt 0.1756198 0.8403042
vt 0.1921488 0.8403042
vt 0.1921488 0.8707224
vt 0.1756198 0.8707224
vt 0.3161157 0.904943
vt 0.3326446 0.904943
vt 0.3326446 0.9353612
vt 0.3161157 0.9353612
vt 0.3161157 0.8403042
vt 0.3326446 0.8403042
vt 0.3326446 0.8707224
vt 0.3161157 0.8707224
vt 0.07024793 0.9695817
vt 0.08677686 0.9695817
vt 0.08677686 1
vt 0.07024793 1
vt 0.05268595 0.9695817
vt 0.06921487 0.9695817
vt 0.06921487 1
vt 0.05268595 1
vt 0.03512397 0.9695817
vt 0.05165289 0.9695817
vt 0.05165289 1
vt 0.03512397 1
vt 0.3161157 0.8726236
vt 0.3326446 0.8726236
vt 0.3326446 0.9030418
vt 0.3161157 0.9030418
vt 0.07024793 0.9372624
vt 0.08677686 0.9372624
vt 0.08677686 0.9676806
vt 0.07024793 0.9676806
vt 0.05268595 0.9372624
vt 0.06921487 0.9372624
vt 0.06921487 0.9676806
vt 0.05268595 0.9676806
vt 0.03512397 0.9372624
vt 0.05165289 0.9372624
vt 0.05165289 0.9676806
vt 0.03512397 0.9676806
vt 0.3161157 0.8079848
vt 0.3326446 0.8079848
vt 0.3326446 0.838403
vt 0.3161157 0.838403
vt 0.07024793 0.904943
vt 0.08677686 0.904943
vt 0.08677686 0.9353612
vt 0.07024793 0.9353612
vt 0.05268595 0.904943
vt 0.06921487 0.904943
vt 0.06921487 0.9353612
vt 0.05268595 0.9353612
vt 0.03512397 0.904943
vt 0.05165289 0.904943
vt 0.05165289 0.9353612
vt 0.03512397 0.9353612
vt 0.1756198 0.904943
vt 0.1921488 0.904943
vt 0.1921488 0.9353612
vt 0.1756198 0.9353612
vt 0.1756198 0.9372624
vt 0.1921488 0.9372624
vt 0.1921488 0.9676806
vt 0.1756198 0.9676806
vt 0.1756198 0.9695817
vt 0.1921488 0.9695817
vt 0.1921488 1
vt 0.1756198 1
vt 0.2107438 0.7756654
vt 0.2272727 0.7756654
vt 0.2272727 0.8060837
vt 0.2107438 0.8060837
vt 0.1931818 0.8079848
vt 0.2097107 0.8079848
vt 0.2097107 0.838403
vt 0.1931818 0.838403
vt 0.2283058 0.8079848
vt 0.2448347 0.8079848
vt 0.2448347 0.838403
vt 0.2283058 0.838403
vt 0.2283058 0.7756654
vt 0.2448347 0.7756654
vt 0.2448347 0.8060837
vt 0.2283058 0.8060837
vt 0.2107438 0.8079848
vt 0.2272727 0.8079848
vt 0.2272727 0.838403
vt 0.2107438 0.838403
vt 0.1931818 0.7756654
vt 0.2097107 0.7756654
vt 0.2097107 0.8060837
vt 0.1931818 0.8060837

# Normal
vn 0 0 -1

# Mesh description
g Market_mesh_0003

# Faces
f 1/1/1 2/2/1 3/3/1 4/4/1
f 5/1/1 6/2/1 7/3/1 8/4/1
f 9/1/1 10/2/1 11/3/1 12/4/1
f 13/1/1 14/2/1 15/3/1 16/4/1
f 17/5/1 18/6/1 19/7/1 20/8/1
f 21/9/1 22/10/1 23/11/1 24/12/1
f 25/13/1 26/14/1 27/15/1 28/16/1
f 29/17/1 30/18/1 31/19/1 32/20/1
f 33/21/1 34/22/1 35/23/1 36/24/1
f 37/1/1 38/2/1 39/3/1 40/4/1
f 41/17/1 42/18/1 43/19/1 44/20/1
f 45/25/1 46/26/1 47/27/1 48/28/1
f 49/21/1 50/22/1 51/23/1 52/24/1
f 53/1/1 54/2/1 55/3/1 56/4/1
f 57/17/1 58/18/1 59/19/1 60/20/1
f 61/25/1 62/26/1 63/27/1 64/28/1
f 65/21/1 66/22/1 67/23/1 68/24/1
f 69/1/1 70/2/1 71/3/1 72/4/1
f 73/17/1 74/18/1 75/19/1 76/20/1
f 77/25/1 78/26/1 79/27/1 80/28/1
f 81/21/1 82/22/1 83/23/1 84/24/1
f 85/1/1 86/2/1 87/3/1 88/4/1
f 89/17/1 90/18/1 91/19/1 92/20/1
f 93/25/1 94/26/1 95/27/1 96/28/1
f 97/21/1 98/22/1 99/23/1 100/24/1
f 101/5/1 102/6/1 103/7/1 104/8/1
f 105/9/1 106/10/1 107/11/1 108/12/1
f 109/13/1 110/14/1 111/15/1 112/16/1
f 113/1/1 114/2/1 115/3/1 116/4/1
f 117/1/1 118/2/1 119/3/1 120/4/1
f 121/1/1 122/2/1 123/3/1 124/4/1
f 125/1/1 126/2/1 127/3/1 128/4/1
f 129/29/1 130/30/1 131/31/1 132/32/1
f 133/33/1 134/34/1 135/35/1 136/36/1
f 137/1/1 138/2/1 139/3/1 140/4/1
f 141/29/1 142/30/1 143/31/1 144/32/1
f 145/37/1 146/38/1 147/39/1 148/40/1
f 149/33/1 150/34/1 151/35/1 152/36/1
f 153/1/1 154/2/1 155/3/1 156/4/1
f 157/29/1 158/30/1 159/31/1 160/32/1
f 161/41/1 162/42/1 163/43/1 164/44/1
f 165/33/1 166/34/1 167/35/1 168/36/1
f 169/1/1 170/2/1 171/3/1 172/4/1
f 173/29/1 174/30/1 175/31/1 176/32/1
f 177/45/1 178/46/1 179/47/1 180/48/1
f 181/33/1 182/34/1 183/35/1 184/36/1
f 185/1/1 186/2/1 187/3/1 188/4/1
f 189/29/1 190/30/1 191/31/1 192/32/1
f 193/49/1 194/50/1 195/51/1 196/52/1
f 197/33/1 198/34/1 199/35/1 200/36/1
f 201/1/1 202/2/1 203/3/1 204/4/1
f 205/1/1 206/2/1 207/3/1 208/4/1
f 209/1/1 210/2/1 211/3/1 212/4/1
f 213/1/1 214/2/1 215/3/1 216/4/1
f 217/1/1 218/2/1 219/3/1 220/4/1
f 221/1/1 222/2/1 223/3/1 224/4/1
f 225/1/1 226/2/1 227/3/1 228/4/1
f 229/1/1 230/2/1 231/3/1 232/4/1
f 233/5/1 234/6/1 235/7/1 236/8/1
f 237/9/1 238/10/1 239/11/1 240/12/1
f 241/13/1 242/14/1 243/15/1 244/16/1
f 245/53/1 246/54/1 247/55/1 248/56/1
f 249/57/1 250/58/1 251/59/1 252/60/1
f 253/1/1 254/2/1 255/3/1 256/4/1
f 257/61/1 258/62/1 259/63/1 260/64/1
f 261/65/1 262/66/1 263/67/1 264/68/1
f 265/69/1 266/70/1 267/71/1 268/72/1
f 269/1/1 270/2/1 271/3/1 272/4/1
f 273/61/1 274/62/1 275/63/1 276/64/1
f 277/65/1 278/66/1 279/67/1 280/68/1
f 281/69/1 282/70/1 283/71/1 284/72/1
f 285/1/1 286/2/1 287/3/1 288/4/1
f 289/61/1 290/62/1 291/63/1 292/64/1
f 293/65/1 294/66/1 295/67/1 296/68/1
f 297/69/1 298/70/1 299/71/1 300/72/1
f 301/1/1 302/2/1 303/3/1 304/4/1
f 305/57/1 306/58/1 307/59/1 308/60/1
f 309/57/1 310/58/1 311/59/1 312/60/1
f 313/73/1 314/74/1 315/75/1 316/76/1
f 317/5/1 318/6/1 319/7/1 320/8/1
f 321/9/1 322/10/1 323/11/1 324/12/1
f 325/13/1 326/14/1 327/15/1 328/16/1
f 329/1/1 330/2/1 331/3/1 332/4/1
f 333/1/1 334/2/1 335/3/1 336/4/1
f 337/1/1 338/2/1 339/3/1 340/4/1
f 341/1/1 342/2/1 343/3/1 344/4/1
f 345/53/1 346/54/1 347/55/1 348/56/1
f 349/1/1 350/2/1 351/3/1 352/4/1
f 353/77/1 354/78/1 355/79/1 356/80/1
f 357/81/1 358/82/1 359/83/1 360/84/1
f 361/85/1 362/86/1 363/87/1 364/88/1
f 365/1/1 366/2/1 367/3/1 368/4/1
f 369/77/1 370/78/1 371/79/1 372/80/1
f 373/81/1 374/82/1 375/83/1 376/84/1
f 377/85/1 378/86/1 379/87/1 380/88/1
f 381/1/1 382/2/1 383/3/1 384/4/1
f 385/77/1 386/78/1 387/79/1 388/80/1
f 389/81/1 390/82/1 391/83/1 392/84/1
f 393/85/1 394/86/1 395/87/1 396/88/1
f 397/1/1 398/2/1 399/3/1 400/4/1
f 401/73/1 402/74/1 403/75/1 404/76/1
f 405/1/1 406/2/1 407/3/1 408/4/1
f 409/1/1 410/2/1 411/3/1 412/4/1
f 413/1/1 414/2/1 415/3/1 416/4/1
f 417/1/1 418/2/1 419/3/1 420/4/1
f 421/53/1 422/54/1 423/55/1 424/56/1
f 425/89/1 426/90/1 427/91/1 428/92/1
f 429/1/1 430/2/1 431/3/1 432/4/1
f 433/93/1 434/94/1 435/95/1 436/96/1
f 437/97/1 438/98/1 439/99/1 440/100/1
f 441/101/1 442/102/1 443/103/1 444/104/1
f 445/1/1 446/2/1 447/3/1 448/4/1
f 449/93/1 450/94/1 451/95/1 452/96/1
f 453/97/1 454/98/1 455/99/1 456/100/1
f 457/101/1 458/102/1 459/103/1 460/104/1
f 461/1/1 462/2/1 463/3/1 464/4/1
f 465/93/1 466/94/1 467/95/1 468/96/1
f 469/97/1 470/98/1 471/99/1 472/100/1
f 473/101/1 474/102/1 475/103/1 476/104/1
f 477/1/1 478/2/1 479/3/1 480/4/1
f 481/89/1 482/90/1 483/91/1 484/92/1
f 485/89/1 486/90/1 487/91/1 488/92/1
f 489/73/1 490/74/1 491/75/1 492/76/1
f 493/5/1 494/6/1 495/7/1 496/8/1
f 497/9/1 498/10/1 499/11/1 500/12/1
f 501/13/1 502/14/1 503/15/1 504/16/1
f 505/1/1 506/2/1 507/3/1 508/4/1
f 509/1/1 510/2/1 511/3/1 512/4/1
f 513/1/1 514/2/1 515/3/1 516/4/1
f 517/1/1 518/2/1 519/3/1 520/4/1
f 521/1/1 522/2/1 523/3/1 524/4/1
f 525/1/1 526/2/1 527/3/1 528/4/1
f 529/1/1 530/2/1 531/3/1 532/4/1
f 533/5/1 534/6/1 535/7/1 536/8/1
f 537/9/1 538/10/1 539/11/1 540/12/1
f 541/13/1 542/14/1 543/15/1 544/16/1
f 545/1/1 546/2/1 547/3/1 548/4/1
f 549/1/1 550/2/1 551/3/1 552/4/1
f 553/1/1 554/2/1 555/3/1 556/4/1
f 557/1/1 558/2/1 559/3/1 560/4/1
f 561/105/1 562/106/1 563/107/1 564/108/1
f 565/109/1 566/110/1 567/111/1 568/112/1
f 569/1/1 570/2/1 571/3/1 572/4/1
f 573/105/1 574/106/1 575/107/1 576/108/1
f 577/113/1 578/114/1 579/115/1 580/116/1
f 581/109/1 582/110/1 583/111/1 584/112/1
f 585/1/1 586/2/1 587/3/1 588/4/1
f 589/105/1 590/106/1 591/107/1 592/108/1
f 593/113/1 594/114/1 595/115/1 596/116/1
f 597/109/1 598/110/1 599/111/1 600/112/1
f 601/1/1 602/2/1 603/3/1 604/4/1
f 605/105/1 606/106/1 607/107/1 608/108/1
f 609/113/1 610/114/1 611/115/1 612/116/1
f 613/109/1 614/110/1 615/111/1 616/112/1
f 617/1/1 618/2/1 619/3/1 620/4/1
f 621/105/1 622/106/1 623/107/1 624/108/1
f 625/113/1 626/114/1 627/115/1 628/116/1
f 629/109/1 630/110/1 631/111/1 632/112/1
f 633/1/1 634/2/1 635/3/1 636/4/1
f 637/1/1 638/2/1 639/3/1 640/4/1
f 641/1/1 642/2/1 643/3/1 644/4/1
f 645/1/1 646/2/1 647/3/1 648/4/1
f 649/117/1 650/118/1 651/119/1 652/120/1
f 653/121/1 654/122/1 655/123/1 656/124/1
f 657/1/1 658/2/1 659/3/1 660/4/1
f 661/29/1 662/30/1 663/31/1 664/32/1
f 665/45/1 666/46/1 667/47/1 668/48/1
f 669/33/1 670/34/1 671/35/1 672/36/1
f 673/1/1 674/2/1 675/3/1 676/4/1
f 677/29/1 678/30/1 679/31/1 680/32/1
f 681/49/1 682/50/1 683/51/1 684/52/1
f 685/125/1 686/126/1 687/127/1 688/128/1
f 689/1/1 690/2/1 691/3/1 692/4/1
f 693/129/1 694/130/1 695/131/1 696/132/1
f 697/45/1 698/46/1 699/47/1 700/48/1
f 701/133/1 702/134/1 703/135/1 704/136/1
f 705/1/1 706/2/1 707/3/1 708/4/1
f 709/137/1 710/138/1 711/139/1 712/140/1
f 713/41/1 714/42/1 715/43/1 716/44/1
f 717/121/1 718/122/1 719/123/1 720/124/1
f 721/1/1 722/2/1 723/3/1 724/4/1
f 725/1/1 726/2/1 727/3/1 728/4/1
f 729/1/1 730/2/1 731/3/1 732/4/1
f 733/1/1 734/2/1 735/3/1 736/4/1

